<svg xmlns="http://www.w3.org/2000/svg" width="87.2" height="87.2" viewBox="0 0 87.2 87.2">
  <path id="Icon_awesome-user-circle" data-name="Icon awesome-user-circle" d="M43.6.562a43.6,43.6,0,1,0,43.6,43.6A43.592,43.592,0,0,0,43.6.562Zm0,16.877A15.471,15.471,0,1,1,28.129,32.911,15.471,15.471,0,0,1,43.6,17.44Zm0,60.477a33.689,33.689,0,0,1-25.756-11.99A19.6,19.6,0,0,1,35.161,55.414a4.3,4.3,0,0,1,1.248.193,23.277,23.277,0,0,0,7.19,1.213,23.189,23.189,0,0,0,7.19-1.213,4.3,4.3,0,0,1,1.248-.193A19.6,19.6,0,0,1,69.356,65.927,33.689,33.689,0,0,1,43.6,77.917Z" transform="translate(0 -0.562)"/>
</svg>
